<svg width="61" height="63" viewBox="0 0 61 63" fill="none" xmlns="http://www.w3.org/2000/svg">
<path d="M59.8491 35.9582C58.3145 34.6806 55.8266 34.6806 54.292 35.9582L43.6557 44.8131C42.1245 46.0878 40.0888 46.7898 37.9235 46.7898H27.3768V43.3113H37.9235C40.0895 43.3113 41.8518 41.8441 41.8518 40.0409C41.8516 38.2374 40.0894 36.7705 37.9233 36.7705H16.9614L0 50.8912L14.5449 63L21.7097 57.0352L43.7978 53.9475L59.8491 40.5846C61.3836 39.307 61.3836 37.2357 59.8491 35.9582Z" fill="url(#paint0_linear)"/>
<path d="M3.11963 14.6247C3.11963 14.6247 5.82273 23.3887 13.3835 27.4272C16.1158 28.8865 19.109 29.5289 21.8174 29.7543C17.9967 27.5565 14.9795 24.7897 13.0429 21.6866C11.6498 19.4545 10.7006 16.8604 10.2211 14.0326C9.91331 14.0236 9.60913 14.0178 9.31358 14.0178C5.73582 14.018 3.11963 14.6247 3.11963 14.6247Z" fill="url(#paint1_linear)"/>
<path d="M57.88 14.6248C57.88 14.6248 55.2632 14.0181 51.6859 14.0181C51.3902 14.0181 51.0862 14.0239 50.7784 14.0329C50.2988 16.8607 49.3497 19.4547 47.9566 21.6868C46.0201 24.7899 43.0028 27.5569 39.1821 29.7546C41.8905 29.5291 44.8835 28.887 47.6161 27.4274C55.1769 23.3888 57.88 14.6248 57.88 14.6248Z" fill="url(#paint2_linear)"/>
<path d="M41.5301 14.6247C41.5301 18.2071 40.4154 21.9983 38.2954 25.6681C40.5179 24.2203 42.7611 22.2803 44.3377 19.7537C48.7031 12.759 46.3075 3.9187 46.3075 3.9187C46.3075 3.9187 43.2678 4.72132 39.8386 6.6885C40.9523 9.36011 41.5301 12.0465 41.5301 14.6247Z" fill="url(#paint3_linear)"/>
<path d="M16.6612 19.7538C18.238 22.2803 20.4812 24.2203 22.7035 25.6682C20.5835 21.9984 19.4688 18.2071 19.4688 14.6249C19.4688 12.0467 20.0466 9.36024 21.1604 6.68863C17.7313 4.72132 14.6915 3.9187 14.6915 3.9187C14.6915 3.9187 12.296 12.759 16.6612 19.7538Z" fill="url(#paint4_linear)"/>
<path d="M23.6479 14.6247C23.6479 22.7016 30.5003 29.2493 30.5003 29.2493C30.5003 29.2493 37.3527 22.7016 37.3527 14.6247C37.3527 6.54773 30.5003 0 30.5003 0C30.5003 0 23.6479 6.54773 23.6479 14.6247Z" fill="url(#paint5_linear)"/>
<defs>
<linearGradient id="paint0_linear" x1="0" y1="35" x2="55.1615" y2="58.872" gradientUnits="userSpaceOnUse">
<stop stop-color="#7F30FF"/>
<stop offset="0.942708" stop-color="#4FB3FC"/>
</linearGradient>
<linearGradient id="paint1_linear" x1="3.11963" y1="14.0178" x2="22.1351" y2="18.506" gradientUnits="userSpaceOnUse">
<stop stop-color="#7F30FF"/>
<stop offset="0.942708" stop-color="#4FB3FC"/>
</linearGradient>
<linearGradient id="paint2_linear" x1="39.1821" y1="14.0181" x2="58.1977" y2="18.5063" gradientUnits="userSpaceOnUse">
<stop stop-color="#7F30FF"/>
<stop offset="0.942708" stop-color="#4FB3FC"/>
</linearGradient>
<linearGradient id="paint3_linear" x1="38.2954" y1="3.9187" x2="47.5438" y2="4.65088" gradientUnits="userSpaceOnUse">
<stop stop-color="#7F30FF"/>
<stop offset="0.942708" stop-color="#4FB3FC"/>
</linearGradient>
<linearGradient id="paint4_linear" x1="14.0356" y1="3.9187" x2="23.2839" y2="4.65085" gradientUnits="userSpaceOnUse">
<stop stop-color="#7F30FF"/>
<stop offset="0.942708" stop-color="#4FB3FC"/>
</linearGradient>
<linearGradient id="paint5_linear" x1="23.6479" y1="0" x2="38.2357" y2="1.35776" gradientUnits="userSpaceOnUse">
<stop stop-color="#7F30FF"/>
<stop offset="0.942708" stop-color="#4FB3FC"/>
</linearGradient>
</defs>
</svg>
