<svg width="37" height="37" viewBox="0 0 37 37" fill="none" xmlns="http://www.w3.org/2000/svg">
<path d="M18.5 34.6875C14.2068 34.6875 10.0895 32.982 7.05371 29.9463C4.01796 26.9105 2.3125 22.7932 2.3125 18.5C2.3125 14.2068 4.01796 10.0895 7.05371 7.05371C10.0895 4.01796 14.2068 2.3125 18.5 2.3125C22.7932 2.3125 26.9105 4.01796 29.9463 7.05371C32.982 10.0895 34.6875 14.2068 34.6875 18.5C34.6875 22.7932 32.982 26.9105 29.9463 29.9463C26.9105 32.982 22.7932 34.6875 18.5 34.6875ZM18.5 37C23.4065 37 28.1121 35.0509 31.5815 31.5815C35.0509 28.1121 37 23.4065 37 18.5C37 13.5935 35.0509 8.88795 31.5815 5.41852C28.1121 1.9491 23.4065 0 18.5 0C13.5935 0 8.88795 1.9491 5.41852 5.41852C1.9491 8.88795 0 13.5935 0 18.5C0 23.4065 1.9491 28.1121 5.41852 31.5815C8.88795 35.0509 13.5935 37 18.5 37Z" fill="url(#paint0_linear)"/>
<path d="M20.6505 15.2347L15.3549 15.8984L15.1653 16.7772L16.2059 16.9691C16.8858 17.131 17.0199 17.3761 16.8719 18.0537L15.1653 26.0734C14.7166 28.1477 15.4081 29.1236 17.0338 29.1236C18.2941 29.1236 19.7579 28.5409 20.4216 27.7407L20.6251 26.7787C20.1626 27.1857 19.4873 27.3476 19.0387 27.3476C18.4028 27.3476 18.1715 26.9013 18.3357 26.1151L20.6505 15.2347ZM20.8124 10.4062C20.8124 11.0196 20.5688 11.6078 20.1351 12.0414C19.7014 12.4751 19.1132 12.7187 18.4999 12.7187C17.8866 12.7187 17.2984 12.4751 16.8647 12.0414C16.431 11.6078 16.1874 11.0196 16.1874 10.4062C16.1874 9.79294 16.431 9.20474 16.8647 8.77107C17.2984 8.33739 17.8866 8.09375 18.4999 8.09375C19.1132 8.09375 19.7014 8.33739 20.1351 8.77107C20.5688 9.20474 20.8124 9.79294 20.8124 10.4062Z" fill="url(#paint1_linear)"/>
<defs>
<linearGradient id="paint0_linear" x1="0" y1="0" x2="38.2169" y2="7.59165" gradientUnits="userSpaceOnUse">
<stop stop-color="#7F30FF"/>
<stop offset="0.942708" stop-color="#4FB3FC"/>
</linearGradient>
<linearGradient id="paint1_linear" x1="15.0313" y1="8.09375" x2="21.2197" y2="8.43169" gradientUnits="userSpaceOnUse">
<stop stop-color="#7F30FF"/>
<stop offset="0.942708" stop-color="#4FB3FC"/>
</linearGradient>
</defs>
</svg>
