<svg width="44" height="57" viewBox="0 0 44 57" fill="none" xmlns="http://www.w3.org/2000/svg">
<path d="M0.144313 30.2752C-0.201272 27.2802 0.0867152 24.3888 0.870039 21.7163C3.47344 12.8348 11.6407 6.30322 21.3286 6.18803V0.382214C21.3286 0.0596689 21.7318 -0.113123 21.9967 0.0827079L33.9424 8.86055C34.1383 9.0103 34.1383 9.3098 33.9424 9.44804L22.0083 18.2259C21.7318 18.4217 21.3401 18.2489 21.3401 17.9264V12.1321C14.9699 12.2358 9.53268 16.1639 7.19423 21.7163C6.30723 23.8128 5.85797 26.1282 5.98468 28.5588C6.15748 31.8995 7.4131 34.9752 9.39445 37.4634C10.4542 38.7881 10.2008 40.7234 8.82999 41.7256C7.52829 42.6817 5.70822 42.4168 4.70602 41.1496C2.25238 38.0854 0.616611 34.3531 0.144313 30.2752ZM34.6336 19.1244C36.6265 21.6011 37.8821 24.6883 38.0434 28.0289C38.1701 30.4711 37.7093 32.7865 36.8338 34.8715C34.4954 40.4239 29.0582 44.3636 22.6879 44.4557V38.6614C22.6879 38.3389 22.2847 38.1661 22.0198 38.3619L10.0741 47.1397C9.87827 47.2895 9.87827 47.589 10.0741 47.7272L22.0083 56.5051C22.2847 56.7009 22.6764 56.5281 22.6764 56.2056V50.3998C32.3643 50.2961 40.5431 43.7645 43.135 34.8715C43.9183 32.199 44.1948 29.3076 43.8607 26.3125C43.3999 22.2347 41.7642 18.5023 39.3105 15.4382C38.2968 14.171 36.4882 13.9061 35.1865 14.8622C33.8272 15.8644 33.5738 17.7997 34.6336 19.1244Z" fill="url(#paint0_linear)"/>
<defs>
<linearGradient id="paint0_linear" x1="0" y1="0" x2="46.1397" y2="7.12666" gradientUnits="userSpaceOnUse">
<stop stop-color="#7F30FF"/>
<stop offset="0.942708" stop-color="#4FB3FC"/>
</linearGradient>
</defs>
</svg>
