<svg width="52" height="43" viewBox="0 0 52 43" fill="none" xmlns="http://www.w3.org/2000/svg">
<path d="M22.7983 30.2071L16.9886 16.7761L14.9102 22.5442H3.09082C6.2583 27.0934 11.7522 31.4375 18.6874 36.9028C20.6707 38.466 22.7805 40.1281 24.9974 41.9224L25.9999 42.7344L27.0029 41.9224C29.2194 40.1281 31.3292 38.466 33.3124 36.9028C40.2476 31.4375 45.7415 27.093 48.909 22.5442H26.9418L22.7983 30.2071Z" fill="url(#paint0_linear)"/>
<path d="M38.2952 0C32.0554 0.0205479 28.083 3.95475 26.0002 7.56384C23.9276 3.97676 19.9719 0 13.8095 0C13.7738 0 13.7396 0 13.7055 0C6.45531 0.0535714 0.387735 5.77361 0.0187774 13.0223C-0.104209 15.4337 0.380991 17.6261 1.35536 19.7264H12.7145L16.7298 8.58611L23.108 23.334L25.0583 19.7264H50.6446C51.6193 17.6261 52.1045 15.4337 51.9811 13.0223C51.6126 5.77361 45.545 0.0535714 38.2952 0Z" fill="url(#paint1_linear)"/>
<defs>
<linearGradient id="paint0_linear" x1="3.09082" y1="16.7761" x2="46.8978" y2="32.136" gradientUnits="userSpaceOnUse">
<stop stop-color="#7F30FF"/>
<stop offset="0.942708" stop-color="#4FB3FC"/>
</linearGradient>
<linearGradient id="paint1_linear" x1="0" y1="0" x2="46.6815" y2="20.6652" gradientUnits="userSpaceOnUse">
<stop stop-color="#7F30FF"/>
<stop offset="0.942708" stop-color="#4FB3FC"/>
</linearGradient>
</defs>
</svg>
