<svg width="37" height="74" viewBox="0 0 37 74" fill="none" xmlns="http://www.w3.org/2000/svg">
<path d="M17.3289 18.9591C20.4252 18.9591 22.9352 16.6576 22.9352 13.8185C22.9352 10.9795 20.4252 8.67798 17.3289 8.67798C14.2327 8.67798 11.7227 10.9795 11.7227 13.8185C11.7227 16.6576 14.2327 18.9591 17.3289 18.9591Z" fill="url(#paint0_linear)"/>
<path d="M20.0039 0.332775C18.9556 1.38754 28.5447 8.91551 28.5447 14.334C28.5447 17.0446 24.2001 21.5982 23.0219 22.3524C22.3014 22.8146 19.9575 22.7324 17.125 22.7664C15.3377 22.7919 11.8279 22.7381 11.2651 22.222C9.79012 20.8695 5.97426 16.8972 5.97426 14.8982C5.97426 10.682 14.611 0.794944 13.2689 0.0293877C12.0506 -0.670955 0 11.3426 0 15.0882C0 20.8327 8.41406 29.2963 8.41406 29.2963C8.41406 29.2963 8.34604 40.8988 8.34604 42.1095C8.34604 52.5239 12.3072 73.0266 15.7427 73.0266C17.8579 73.0266 16.0087 62.1274 16.0087 56.9641C16.0087 50.8283 17.3291 44.6925 17.3291 44.6925C17.3291 44.6925 27.8644 48.0581 26.7419 49.1186C24.1073 51.6052 16.9456 54.0181 17.8733 55.2941C19.0422 56.8989 29.5343 54.3896 35.7714 49.8728C38.3843 47.9816 25.202 38.914 25.202 38.914C25.202 33.8585 25.2793 33.7394 25.0072 29.2992C25.0072 29.2992 33.9624 20.3422 33.9624 15.2413C33.9624 8.16413 21.5438 -1.22102 20.0039 0.332775Z" fill="url(#paint1_linear)"/>
<defs>
<linearGradient id="paint0_linear" x1="11.7227" y1="8.67798" x2="23.2213" y2="11.1691" gradientUnits="userSpaceOnUse">
<stop stop-color="#7F30FF"/>
<stop offset="0.942708" stop-color="#4FB3FC"/>
</linearGradient>
<linearGradient id="paint1_linear" x1="0" y1="0" x2="38.4032" y2="3.77264" gradientUnits="userSpaceOnUse">
<stop stop-color="#7F30FF"/>
<stop offset="0.942708" stop-color="#4FB3FC"/>
</linearGradient>
</defs>
</svg>
