<svg width="52" height="52" viewBox="0 0 52 52" fill="none" xmlns="http://www.w3.org/2000/svg">
<path d="M26.2669 41.083C27.8984 42.7166 27.8883 45.3446 26.2669 46.966L22.5979 50.6349C20.9901 52.2468 18.3472 52.2672 16.7149 50.6349L1.36417 35.2844C-0.257119 33.6621 -0.257119 31.0227 1.36417 29.4014L5.03312 25.7325C6.65451 24.1111 9.28258 24.1011 10.9161 25.7325L26.2669 41.083ZM1.98263 39.2823C1.60731 38.907 0.983336 38.9759 0.693606 39.4207C-0.45731 41.1871 -0.102374 43.3166 1.21649 44.6356L7.36366 50.7826C8.67108 52.0901 10.799 52.4662 12.578 51.3061C13.0229 51.016 13.0927 50.3923 12.7171 50.0166L1.98263 39.2823ZM28.7898 17.5451C28.1398 16.8962 27.0864 16.8962 26.4364 17.5451L17.5448 26.4366C16.8948 27.0865 16.8948 28.14 17.5448 28.7899L23.2094 34.4545C23.8572 35.1023 24.9107 35.1045 25.5628 34.4545L34.4544 25.563C35.1044 24.9131 35.1044 23.8596 34.4544 23.2096L28.7898 17.5451ZM50.0186 12.7154C50.3942 13.0911 51.0183 13.0211 51.3083 12.576C52.4675 10.7966 52.0867 8.6682 50.7827 7.36412L44.6356 1.21705C43.3199 -0.0976396 41.1918 -0.459954 39.423 0.691985C38.9781 0.981711 38.9089 1.60578 39.2843 1.9812L50.0186 12.7154ZM35.2843 1.36472C33.662 -0.256542 31.0226 -0.257582 29.4013 1.36472L25.7323 5.03362C24.111 6.65488 24.1009 9.28291 25.7323 10.9165L41.0831 26.2671C42.7182 27.9001 45.3465 27.8868 46.9661 26.2671L50.6351 22.5982C52.2563 20.9769 52.2563 18.3375 50.6351 16.7152L35.2843 1.36472Z" fill="url(#paint0_linear)"/>
<defs>
<linearGradient id="paint0_linear" x1="0" y1="0" x2="53.7102" y2="10.6694" gradientUnits="userSpaceOnUse">
<stop stop-color="#7F30FF"/>
<stop offset="0.942708" stop-color="#4FB3FC"/>
</linearGradient>
</defs>
</svg>
