<svg width="1171" height="154" viewBox="0 0 1171 154" fill="none" xmlns="http://www.w3.org/2000/svg">
<path d="M63.2773 89.6386L67.0866 114.916H68.1448L72.3773 89.4262L100.736 2.33655H131.21L76.1867 152.088H55.447L0 2.33655H33.6491L63.2773 89.6386Z" fill="url(#paint0_linear)"/>
<path d="M143.604 44.8193H171.116V151.026H143.604V44.8193ZM139.583 14.869C139.583 10.7623 141.064 7.29287 144.027 4.46068C147.131 1.48689 151.364 0 156.725 0C162.086 0 166.389 1.48689 169.634 4.46068C173.02 7.29287 174.714 10.7623 174.714 14.869C174.714 18.9756 173.02 22.4451 169.634 25.2772C166.389 27.9678 162.086 29.3131 156.725 29.3131C151.364 29.3131 147.131 27.9678 144.027 25.2772C141.064 22.4451 139.583 18.9756 139.583 14.869Z" fill="url(#paint1_linear)"/>
<path d="M198.11 2.33655H225.622V53.3159H226.469C229.431 49.9172 233.241 47.2267 237.897 45.2441C242.552 43.2616 247.702 42.2703 253.346 42.2703C266.043 42.2703 275.708 46.6602 282.339 55.44C289.111 64.0782 292.497 77.3186 292.497 95.1614C292.497 114.279 287.771 128.794 278.318 138.706C269.006 148.619 256.167 153.575 239.801 153.575C230.772 153.575 222.518 152.796 215.041 151.239C207.563 149.823 201.92 148.194 198.11 146.353V2.33655ZM245.304 65.6359C240.224 65.6359 236.062 66.9811 232.817 69.6717C229.714 72.2207 227.315 75.9733 225.622 80.9297V127.236C227.879 128.369 230.278 129.148 232.817 129.572C235.498 129.997 238.32 130.21 241.283 130.21C248.76 130.21 254.404 127.519 258.213 122.138C262.163 116.615 264.139 107.906 264.139 96.011C264.139 75.7609 257.86 65.6359 245.304 65.6359Z" fill="url(#paint2_linear)"/>
<path d="M369.982 70.7338C365.608 69.1761 361.658 68.3972 358.13 68.3972C353.192 68.3972 349.03 69.7425 345.644 72.4331C342.399 74.9821 340.212 78.3099 339.084 82.4166V151.026H311.572V44.8193H332.946L336.121 58.8386H336.967C339.366 53.5991 342.611 49.5632 346.702 46.731C350.794 43.8988 355.591 42.4828 361.093 42.4828C364.761 42.4828 368.923 43.2616 373.579 44.8193L369.982 70.7338Z" fill="url(#paint3_linear)"/>
<path d="M380.687 97.9228C380.687 79.9384 385.061 66.1315 393.808 56.5021C402.555 46.731 414.83 41.8455 430.632 41.8455C439.097 41.8455 446.433 43.1908 452.641 45.8814C458.849 48.572 463.999 52.3954 468.09 57.3517C472.182 62.1664 475.215 68.0432 477.19 74.9821C479.307 81.9209 480.365 89.5678 480.365 97.9228C480.365 115.907 475.991 129.785 467.244 139.556C458.637 149.185 446.433 154 430.632 154C422.167 154 414.83 152.655 408.622 149.964C402.414 147.274 397.194 143.521 392.962 138.706C388.87 133.75 385.766 127.802 383.65 120.863C381.675 113.925 380.687 106.278 380.687 97.9228ZM409.045 97.9228C409.045 102.596 409.469 106.915 410.315 110.88C411.162 114.845 412.432 118.314 414.125 121.288C415.818 124.262 418.004 126.599 420.685 128.298C423.507 129.856 426.822 130.634 430.632 130.634C437.827 130.634 443.188 128.015 446.716 122.775C450.243 117.536 452.006 109.251 452.006 97.9228C452.006 88.1517 450.384 80.2924 447.139 74.3448C443.894 68.2556 438.391 65.211 430.632 65.211C423.86 65.211 418.569 67.76 414.759 72.8579C410.95 77.9559 409.045 86.3108 409.045 97.9228Z" fill="url(#paint4_linear)"/>
<path d="M553.597 2.33655H641.423V28.251H582.59V62.8745H636.132V88.789H582.59V125.112H642.481V151.026H553.597V2.33655Z" fill="url(#paint5_linear)"/>
<path d="M753.473 113.641C753.473 119.589 753.543 125.537 753.684 131.484C753.826 137.432 754.46 144.017 755.589 151.239H735.907L732.098 137.432H731.252C728.43 142.388 724.338 146.424 718.977 149.539C713.757 152.513 707.549 154 700.354 154C687.092 154 676.792 149.61 669.456 140.83C662.119 132.051 658.451 118.314 658.451 99.6221C658.451 81.4961 662.542 67.406 670.726 57.3517C678.909 47.2975 690.901 42.2703 706.703 42.2703C711.076 42.2703 714.674 42.5536 717.496 43.12C720.317 43.5448 723.139 44.3237 725.961 45.4566V2.33655H753.473V113.641ZM706.703 130.634C712.064 130.634 716.297 129.36 719.4 126.811C722.504 124.12 724.691 120.297 725.961 115.341V70.309C723.986 68.7513 721.799 67.6184 719.4 66.9103C717.002 66.0607 713.898 65.6359 710.089 65.6359C702.329 65.6359 696.474 68.2556 692.523 73.4952C688.714 78.7347 686.809 87.7269 686.809 100.472C686.809 109.535 688.361 116.828 691.465 122.35C694.71 127.873 699.789 130.634 706.703 130.634Z" fill="url(#paint6_linear)"/>
<path d="M779.94 44.8193H807.452V151.026H779.94V44.8193ZM775.919 14.869C775.919 10.7623 777.4 7.29287 780.363 4.46068C783.467 1.48689 787.699 0 793.061 0C798.422 0 802.725 1.48689 805.97 4.46068C809.356 7.29287 811.049 10.7623 811.049 14.869C811.049 18.9756 809.356 22.4451 805.97 25.2772C802.725 27.9678 798.422 29.3131 793.061 29.3131C787.699 29.3131 783.467 27.9678 780.363 25.2772C777.4 22.4451 775.919 18.9756 775.919 14.869Z" fill="url(#paint7_linear)"/>
<path d="M823.441 44.8193H838.044V24.8524L865.555 16.9931V44.8193H891.374V68.1848H865.555V108.968C865.555 116.332 866.261 121.642 867.672 124.899C869.224 128.015 872.045 129.572 876.137 129.572C878.959 129.572 881.357 129.289 883.332 128.723C885.449 128.156 887.777 127.307 890.316 126.174L895.184 147.415C891.374 149.256 886.93 150.814 881.851 152.088C876.772 153.363 871.622 154 866.402 154C856.667 154 849.472 151.522 844.816 146.566C840.301 141.468 838.044 133.183 838.044 121.713V68.1848H823.441V44.8193Z" fill="url(#paint8_linear)"/>
<path d="M910.555 44.8193H938.067V151.026H910.555V44.8193ZM906.534 14.869C906.534 10.7623 908.015 7.29287 910.978 4.46068C914.082 1.48689 918.315 0 923.676 0C929.037 0 933.34 1.48689 936.585 4.46068C939.971 7.29287 941.664 10.7623 941.664 14.869C941.664 18.9756 939.971 22.4451 936.585 25.2772C933.34 27.9678 929.037 29.3131 923.676 29.3131C918.315 29.3131 914.082 27.9678 910.978 25.2772C908.015 22.4451 906.534 18.9756 906.534 14.869Z" fill="url(#paint9_linear)"/>
<path d="M959.982 97.9228C959.982 79.9384 964.356 66.1315 973.103 56.5021C981.85 46.731 994.125 41.8455 1009.93 41.8455C1018.39 41.8455 1025.73 43.1908 1031.94 45.8814C1038.14 48.572 1043.29 52.3954 1047.39 57.3517C1051.48 62.1664 1054.51 68.0432 1056.49 74.9821C1058.6 81.9209 1059.66 89.5678 1059.66 97.9228C1059.66 115.907 1055.29 129.785 1046.54 139.556C1037.93 149.185 1025.73 154 1009.93 154C1001.46 154 994.125 152.655 987.917 149.964C981.709 147.274 976.489 143.521 972.256 138.706C968.165 133.75 965.061 127.802 962.945 120.863C960.97 113.925 959.982 106.278 959.982 97.9228ZM988.34 97.9228C988.34 102.596 988.764 106.915 989.61 110.88C990.457 114.845 991.726 118.314 993.419 121.288C995.112 124.262 997.299 126.599 999.98 128.298C1002.8 129.856 1006.12 130.634 1009.93 130.634C1017.12 130.634 1022.48 128.015 1026.01 122.775C1029.54 117.536 1031.3 109.251 1031.3 97.9228C1031.3 88.1517 1029.68 80.2924 1026.43 74.3448C1023.19 68.2556 1017.69 65.211 1009.93 65.211C1003.15 65.211 997.864 67.76 994.054 72.8579C990.245 77.9559 988.34 86.3108 988.34 97.9228Z" fill="url(#paint10_linear)"/>
<path d="M1143.49 151.026V90.7007C1143.49 82.0625 1142.22 75.8317 1139.68 72.0083C1137.28 68.1848 1133.12 66.2731 1127.19 66.2731C1121.97 66.2731 1117.53 67.8308 1113.86 70.9462C1110.33 73.92 1107.79 77.6726 1106.24 82.2041V151.026H1078.73V44.8193H1100.53L1103.7 58.8386H1104.55C1107.79 54.3071 1112.1 50.3421 1117.46 46.9435C1122.82 43.5448 1129.73 41.8455 1138.2 41.8455C1143.42 41.8455 1148.07 42.5536 1152.16 43.9697C1156.26 45.3857 1159.71 47.7223 1162.53 50.9793C1165.36 54.2363 1167.47 58.697 1168.88 64.3614C1170.29 69.8841 1171 76.7522 1171 84.9655V151.026H1143.49Z" fill="url(#paint11_linear)"/>
<defs>
<linearGradient id="paint0_linear" x1="555.5" y1="62" x2="557.528" y2="195.395" gradientUnits="userSpaceOnUse">
<stop stop-color="white"/>
<stop offset="0.817508" stop-color="white" stop-opacity="0"/>
</linearGradient>
<linearGradient id="paint1_linear" x1="555.5" y1="62" x2="557.528" y2="195.395" gradientUnits="userSpaceOnUse">
<stop stop-color="white"/>
<stop offset="0.817508" stop-color="white" stop-opacity="0"/>
</linearGradient>
<linearGradient id="paint2_linear" x1="555.5" y1="62" x2="557.528" y2="195.395" gradientUnits="userSpaceOnUse">
<stop stop-color="white"/>
<stop offset="0.817508" stop-color="white" stop-opacity="0"/>
</linearGradient>
<linearGradient id="paint3_linear" x1="555.5" y1="62" x2="557.528" y2="195.395" gradientUnits="userSpaceOnUse">
<stop stop-color="white"/>
<stop offset="0.817508" stop-color="white" stop-opacity="0"/>
</linearGradient>
<linearGradient id="paint4_linear" x1="555.5" y1="62" x2="557.528" y2="195.395" gradientUnits="userSpaceOnUse">
<stop stop-color="white"/>
<stop offset="0.817508" stop-color="white" stop-opacity="0"/>
</linearGradient>
<linearGradient id="paint5_linear" x1="555.5" y1="62" x2="557.528" y2="195.395" gradientUnits="userSpaceOnUse">
<stop stop-color="white"/>
<stop offset="0.817508" stop-color="white" stop-opacity="0"/>
</linearGradient>
<linearGradient id="paint6_linear" x1="555.5" y1="62" x2="557.528" y2="195.395" gradientUnits="userSpaceOnUse">
<stop stop-color="white"/>
<stop offset="0.817508" stop-color="white" stop-opacity="0"/>
</linearGradient>
<linearGradient id="paint7_linear" x1="555.5" y1="62" x2="557.528" y2="195.395" gradientUnits="userSpaceOnUse">
<stop stop-color="white"/>
<stop offset="0.817508" stop-color="white" stop-opacity="0"/>
</linearGradient>
<linearGradient id="paint8_linear" x1="555.5" y1="62" x2="557.528" y2="195.395" gradientUnits="userSpaceOnUse">
<stop stop-color="white"/>
<stop offset="0.817508" stop-color="white" stop-opacity="0"/>
</linearGradient>
<linearGradient id="paint9_linear" x1="555.5" y1="62" x2="557.528" y2="195.395" gradientUnits="userSpaceOnUse">
<stop stop-color="white"/>
<stop offset="0.817508" stop-color="white" stop-opacity="0"/>
</linearGradient>
<linearGradient id="paint10_linear" x1="555.5" y1="62" x2="557.528" y2="195.395" gradientUnits="userSpaceOnUse">
<stop stop-color="white"/>
<stop offset="0.817508" stop-color="white" stop-opacity="0"/>
</linearGradient>
<linearGradient id="paint11_linear" x1="555.5" y1="62" x2="557.528" y2="195.395" gradientUnits="userSpaceOnUse">
<stop stop-color="white"/>
<stop offset="0.817508" stop-color="white" stop-opacity="0"/>
</linearGradient>
</defs>
</svg>
